<svg width="392" height="281" viewBox="0 0 392 281" fill="none" xmlns="http://www.w3.org/2000/svg">
<path fill-rule="evenodd" clip-rule="evenodd" d="M357.913 281H34.087C25.0465 281 16.3764 277.517 9.98384 271.317C3.59129 265.118 0 256.709 0 247.941V66.1176C0 57.3499 3.59129 48.9413 9.98384 42.7415C16.3764 36.5418 25.0465 33.0588 34.087 33.0588H42.6087C42.6087 28.675 44.4043 24.4706 47.6006 21.3708C50.7969 18.2709 55.132 16.5294 59.6522 16.5294H76.6957C81.2159 16.5294 85.5509 18.2709 88.7472 21.3708C91.9435 24.4706 93.7391 28.675 93.7391 33.0588H110.783C117.207 32.0746 123.16 29.1878 127.826 24.7941L144.87 8.26471C146.966 5.81825 149.563 3.82049 152.497 2.39787C155.431 0.975244 158.637 0.158731 161.913 0H230.087C233.389 0.0307055 236.64 0.791005 239.593 2.22311C242.546 3.65521 245.124 5.72142 247.13 8.26471L264.174 24.7941C268.84 29.1878 274.793 32.0746 281.217 33.0588H357.913C366.953 33.0588 375.624 36.5418 382.016 42.7415C388.409 48.9413 392 57.3499 392 66.1176V247.941C392 256.709 388.409 265.118 382.016 271.317C375.624 277.517 366.953 281 357.913 281ZM374.957 66.1176C374.957 61.7338 373.161 57.5295 369.965 54.4296C366.768 51.3297 362.433 49.5882 357.913 49.5882L279.334 49.4808C269.054 48.114 259.507 43.5527 252.124 36.4804L233.973 18.8766L233.121 17.6286C232.259 16.9531 231.194 16.5673 230.087 16.5294H161.913C160.538 16.7982 159.278 17.4637 158.3 18.4386L157.661 19.265L139.876 36.5052C132.494 43.5785 122.947 48.14 112.666 49.5056L77.2922 49.5552C77.0876 49.5552 76.8917 49.6213 76.6957 49.6213H59.6522C59.5329 49.6213 59.4306 49.6213 59.3113 49.6213L34.087 49.5882C29.5667 49.5882 25.2317 51.3297 22.0354 54.4296C18.8391 57.5295 17.0435 61.7338 17.0435 66.1176V247.941C17.0435 252.325 18.8391 256.529 22.0354 259.629C25.2317 262.729 29.5667 264.471 34.087 264.471H357.913C362.433 264.471 366.768 262.729 369.965 259.629C373.161 256.529 374.957 252.325 374.957 247.941V66.1176ZM196 247.941C177.46 247.941 159.337 242.609 143.921 232.62C128.506 222.63 116.491 208.432 109.396 191.82C102.301 175.208 100.445 156.929 104.062 139.293C107.679 121.658 116.607 105.459 129.716 92.7451C142.826 80.0308 159.529 71.3723 177.712 67.8645C195.896 64.3566 214.744 66.157 231.872 73.0379C249.001 79.9188 263.641 91.5712 273.941 106.522C284.241 121.472 289.739 139.049 289.739 157.029C289.739 181.141 279.863 204.264 262.284 221.314C244.704 238.363 220.861 247.941 196 247.941ZM196 82.6471C180.831 82.6471 166.003 87.0095 153.39 95.1827C140.778 103.356 130.947 114.973 125.142 128.565C119.338 142.156 117.819 157.112 120.778 171.541C123.737 185.969 131.042 199.223 141.768 209.626C152.494 220.028 166.16 227.112 181.037 229.983C195.915 232.853 211.336 231.38 225.35 225.75C239.364 220.12 251.343 210.586 259.77 198.354C268.198 186.122 272.696 171.741 272.696 157.029C272.696 137.302 264.615 118.383 250.232 104.433C235.849 90.4838 216.341 82.6471 196 82.6471ZM196 198.353C187.573 198.353 179.335 195.929 172.328 191.389C165.321 186.848 159.86 180.394 156.635 172.843C153.41 165.292 152.566 156.984 154.21 148.968C155.854 140.952 159.912 133.588 165.871 127.809C171.83 122.03 179.422 118.094 187.687 116.5C195.953 114.905 204.52 115.724 212.306 118.851C220.091 121.979 226.746 127.276 231.428 134.071C236.11 140.867 238.609 148.856 238.609 157.029C238.609 167.989 234.12 178.5 226.129 186.25C218.138 193.999 207.301 198.353 196 198.353ZM196 132.235C190.944 132.235 186.001 133.689 181.797 136.414C177.593 139.138 174.316 143.011 172.381 147.541C170.446 152.072 169.94 157.057 170.926 161.867C171.912 166.676 174.347 171.094 177.923 174.561C181.498 178.029 186.053 180.39 191.012 181.347C195.972 182.304 201.112 181.813 205.783 179.936C210.455 178.06 214.448 174.882 217.257 170.804C220.066 166.727 221.565 161.933 221.565 157.029C221.565 150.454 218.872 144.147 214.077 139.497C209.283 134.848 202.78 132.235 196 132.235ZM76.6957 99.1765H42.6087C40.3486 99.1765 38.1811 98.3057 36.5829 96.7558C34.9848 95.2059 34.087 93.1037 34.087 90.9118V74.3824C34.087 72.1904 34.9848 70.0883 36.5829 68.5383C38.1811 66.9884 40.3486 66.1176 42.6087 66.1176H76.6957C78.9558 66.1176 81.1233 66.9884 82.7214 68.5383C84.3196 70.0883 85.2174 72.1904 85.2174 74.3824V90.9118C85.2174 93.1037 84.3196 95.2059 82.7214 96.7558C81.1233 98.3057 78.9558 99.1765 76.6957 99.1765Z" fill="white"/>
</svg>
