<svg width="24" height="24" viewBox="0 0 24 24" fill="none" xmlns="http://www.w3.org/2000/svg">
<path fill-rule="evenodd" clip-rule="evenodd" d="M12.9327 6.22534L17.7941 11.0868L6.88075 22.0002L2.02386 21.9956L2.01929 17.1387L12.9327 6.22534ZM3.51987 17.7595L3.52245 20.497L6.26002 20.4996L15.6728 11.0868L12.9327 8.34666L3.51987 17.7595Z" fill="black"/>
<path fill-rule="evenodd" clip-rule="evenodd" d="M12.9327 6.22534L17.7941 11.0868L6.88075 22.0002L2.02386 21.9956L2.01929 17.1387L12.9327 6.22534ZM3.51987 17.7595L3.52245 20.497L6.26002 20.4996L15.6728 11.0868L12.9327 8.34666L3.51987 17.7595Z" fill="black"/>
<path fill-rule="evenodd" clip-rule="evenodd" d="M13.4933 14.5537L9.44644 10.5069L10.5071 9.4462L14.554 13.4931L13.4933 14.5537Z" fill="black"/>
<path fill-rule="evenodd" clip-rule="evenodd" d="M21.9805 22H11.9437V20.5H20.4805V3.5H3.51927V12.1964H2.01927V2H21.9805V22Z" fill="black"/>
</svg>
