<svg width="24" height="24" viewBox="0 0 24 24" fill="none" xmlns="http://www.w3.org/2000/svg">
<path fill-rule="evenodd" clip-rule="evenodd" d="M3.01074 8.84888H20.998V10.3489H3.01074V8.84888Z" fill="black"/>
<path fill-rule="evenodd" clip-rule="evenodd" d="M15.3588 12.4614H16.8673V13.9614H15.3588V12.4614Z" fill="black"/>
<path fill-rule="evenodd" clip-rule="evenodd" d="M11.2545 12.4614H12.7631V13.9614H11.2545V12.4614Z" fill="black"/>
<path fill-rule="evenodd" clip-rule="evenodd" d="M7.14124 12.4614H8.6498V13.9614H7.14124V12.4614Z" fill="black"/>
<path fill-rule="evenodd" clip-rule="evenodd" d="M15.3588 16.0564H16.8673V17.5564H15.3588V16.0564Z" fill="black"/>
<path fill-rule="evenodd" clip-rule="evenodd" d="M11.2545 16.0566H12.7631V17.5566H11.2545V16.0566Z" fill="black"/>
<path fill-rule="evenodd" clip-rule="evenodd" d="M7.14124 16.0566H8.6498V17.5566H7.14124V16.0566Z" fill="black"/>
<path fill-rule="evenodd" clip-rule="evenodd" d="M16.4908 2V6.54399H14.9908V2H16.4908Z" fill="black"/>
<path fill-rule="evenodd" clip-rule="evenodd" d="M9.01855 2V6.54399H7.51855V2H9.01855Z" fill="black"/>
<path fill-rule="evenodd" clip-rule="evenodd" d="M2.92578 3.46069H21.0758V22H2.92578V3.46069ZM4.42578 4.96069V20.5H19.5758V4.96069H4.42578Z" fill="black"/>
</svg>
