<svg width="40" height="40" viewBox="0 0 40 40" fill="none" xmlns="http://www.w3.org/2000/svg">
<g clip-path="url(#clip0_389_67)">
<path fill-rule="evenodd" clip-rule="evenodd" d="M14.7836 17.8582C14.4362 17.8582 14.1509 18.1104 14.1509 18.4217C14.1509 18.733 14.4339 18.9853 14.7836 18.9853H19.41C19.7573 18.9853 20.0426 18.733 20.0426 18.4217C20.0426 18.1104 19.7596 17.8582 19.41 17.8582H14.7836ZM26.8913 7C30.816 7 34 9.81372 34 13.2866C34 15.7931 32.3413 17.9558 29.9418 18.967V30.704C29.9418 31.0621 29.7785 31.3856 29.5116 31.6195C29.2448 31.8556 28.879 32 28.4764 32H10.4654C10.0606 32 9.69476 31.8556 9.4302 31.6195C9.16334 31.3835 9 31.0601 9 30.704V11.5573C9 11.1992 9.16334 10.8757 9.4302 10.6418C9.69706 10.4058 10.0629 10.2613 10.4654 10.2613H20.6569C21.8669 8.31632 24.2043 7 26.8913 7ZM28.6811 19.3718C28.1106 19.5041 27.5102 19.5732 26.8913 19.5732C22.9666 19.5732 19.7826 16.7595 19.7826 13.2866C19.7826 12.6213 19.9 11.9805 20.1162 11.3783H10.4654C10.4102 11.3783 10.3573 11.3986 10.3205 11.4312C10.2837 11.4657 10.2607 11.5105 10.2607 11.5593V30.702C10.2607 30.7508 10.2837 30.7956 10.3205 30.8302C10.3596 30.8627 10.4102 30.8831 10.4654 30.8831H28.4741C28.5293 30.8831 28.5822 30.8627 28.619 30.8302C28.6558 30.7956 28.6788 30.7508 28.6788 30.702V19.3718H28.6811ZM14.7836 25.7622C14.4362 25.7622 14.1532 26.0125 14.1532 26.3197C14.1532 26.6269 14.4362 26.8771 14.7836 26.8771H23.6338C23.9811 26.8771 24.2641 26.6269 24.2641 26.3197C24.2641 26.0125 23.9811 25.7622 23.6338 25.7622H14.7836ZM14.7836 21.8132C14.4362 21.8132 14.1532 22.0635 14.1532 22.3707C14.1532 22.6779 14.4362 22.9281 14.7836 22.9281H23.6338C23.9811 22.9281 24.2641 22.6779 24.2641 22.3707C24.2641 22.0635 23.9811 21.8132 23.6338 21.8132H14.7836ZM24.807 12.245L26.1114 13.3436L28.8169 10.9185C29.04 10.7191 29.1781 10.5583 29.4541 10.8086L30.3444 11.6143C30.6366 11.8706 30.6228 12.0191 30.3467 12.2572L26.6199 15.5002C26.0378 16.0047 26.139 16.0352 25.5501 15.5185L23.3071 13.545C23.1851 13.427 23.199 13.309 23.3324 13.191L24.3653 12.2429C24.5195 12.1005 24.646 12.1086 24.807 12.245Z" fill="#0471FF"/>
</g>
<circle cx="20" cy="20" r="19.5" stroke="#0471FF"/>
<defs>
<clipPath id="clip0_389_67">
<rect width="25" height="25" fill="white" transform="translate(9 7)"/>
</clipPath>
</defs>
</svg>
