<svg width="40" height="40" viewBox="0 0 40 40" fill="none" xmlns="http://www.w3.org/2000/svg">
<circle cx="20" cy="20" r="19.5" stroke="#0471FF"/>
<g clip-path="url(#clip0_386_51)">
<path fill-rule="evenodd" clip-rule="evenodd" d="M27.4356 20.4464C28.5362 20.446 29.6123 20.7845 30.5276 21.4191C31.4429 22.0538 32.1564 22.956 32.5779 24.0117C32.9994 25.0674 33.1098 26.2292 32.8954 27.3502C32.6809 28.4711 32.1511 29.5008 31.373 30.3091C30.5949 31.1173 29.6034 31.6678 28.524 31.8909C27.4445 32.114 26.3256 31.9997 25.3087 31.5625C24.2919 31.1252 23.4227 30.3847 22.8112 29.4345C22.1997 28.4843 21.8733 27.3671 21.8733 26.2243C21.8733 24.6923 22.4593 23.223 23.5023 22.1395C24.5454 21.056 25.9602 20.447 27.4356 20.4464ZM22.565 7.85558C22.565 7.38448 23.0146 7.01056 23.5701 7.01056C24.1255 7.01056 24.5751 7.39504 24.5751 7.86614V11.8378C24.5751 12.311 24.1255 12.6933 23.5701 12.6933C23.0146 12.6933 22.565 12.311 22.565 11.8378V7.85558ZM13.5603 7.85558C13.5603 7.38448 14.0099 7.01056 14.5653 7.01056C15.1208 7.01056 15.5724 7.39504 15.5724 7.86614V11.8378C15.5724 12.311 15.1208 12.7039 14.5653 12.7039C14.0099 12.7039 13.5603 12.3215 13.5603 11.8483V7.85558ZM17.7656 23.4061H20.207C19.8843 24.3078 19.7203 25.2623 19.7228 26.2243C19.7228 26.4081 19.7228 26.5919 19.7411 26.7735H17.7656C17.6649 26.773 17.5684 26.7312 17.4972 26.6572C17.426 26.5832 17.3857 26.4831 17.3852 26.3785V23.8012C17.3857 23.6966 17.426 23.5964 17.4972 23.5224C17.5684 23.4485 17.6649 23.4067 17.7656 23.4061ZM23.7878 17.924H26.7724C26.8565 17.9247 26.938 17.954 27.0045 18.0075C27.071 18.0609 27.1188 18.1355 27.1406 18.2198C25.8198 18.2706 24.5339 18.6745 23.4073 19.3923V18.317C23.4078 18.2126 23.4482 18.1126 23.5195 18.039C23.5907 17.9654 23.6872 17.924 23.7878 17.924ZM17.7656 17.924H20.7523C20.8528 17.924 20.9493 17.9654 21.0206 18.039C21.0919 18.1126 21.1322 18.2126 21.1327 18.317V20.8964C21.1317 21.0008 21.0912 21.1007 21.0201 21.1745C20.949 21.2484 20.8529 21.2903 20.7523 21.2914H17.7656C17.6649 21.2909 17.5684 21.2491 17.4972 21.1751C17.426 21.1012 17.3857 21.001 17.3852 20.8964V18.317C17.3862 18.2127 17.4267 18.1131 17.4979 18.0396C17.5691 17.9661 17.6652 17.9246 17.7656 17.924ZM11.7476 17.924H14.7342C14.7845 17.9232 14.8345 17.9327 14.8812 17.9521C14.9279 17.9714 14.9705 18.0002 15.0065 18.0367C15.0424 18.0733 15.071 18.1169 15.0906 18.165C15.1103 18.2131 15.1205 18.2647 15.1208 18.317V20.8964C15.1197 21.0008 15.0793 21.1007 15.0082 21.1745C14.937 21.2484 14.8409 21.2903 14.7403 21.2914H11.7496C11.6487 21.2914 11.5519 21.2498 11.4806 21.1757C11.4092 21.1017 11.3691 21.0012 11.3691 20.8964V18.317C11.3697 18.2126 11.41 18.1126 11.4813 18.039C11.5526 17.9654 11.649 17.924 11.7496 17.924H11.7476ZM11.7476 23.4061H14.7342C14.7847 23.4053 14.8348 23.4149 14.8817 23.4343C14.9285 23.4538 14.9712 23.4828 15.0072 23.5196C15.0432 23.5563 15.0717 23.6002 15.0912 23.6485C15.1107 23.6969 15.1208 23.7487 15.1208 23.8012V26.3785C15.1197 26.484 15.0784 26.5848 15.006 26.6588C14.9336 26.7329 14.8358 26.7741 14.7342 26.7735H11.7496C11.6487 26.7735 11.5519 26.7319 11.4806 26.6578C11.4092 26.5837 11.3691 26.4833 11.3691 26.3785V23.8012C11.3691 23.6964 11.4092 23.5959 11.4806 23.5218C11.5519 23.4477 11.6487 23.4061 11.7496 23.4061H11.7476ZM21.0005 30.6437H10.0833C9.53146 30.6415 9.0028 30.4129 8.61256 30.0077C8.22232 29.6025 8.00214 29.0535 8 28.4805V11.3392C8.00267 10.7663 8.22303 10.2177 8.61315 9.8126C9.00327 9.40751 9.53162 9.17871 10.0833 9.17593H12.0039V11.8378C12.0057 12.1936 12.0846 12.5445 12.2346 12.8644C12.3846 13.1844 12.602 13.4653 12.8706 13.6862C13.3505 14.0895 13.9491 14.3094 14.5664 14.3094C15.1837 14.3094 15.7823 14.0895 16.2621 13.6862C16.5308 13.4653 16.7481 13.1844 16.8981 12.8644C17.0481 12.5445 17.127 12.1936 17.1288 11.8378V9.17593H21.0086V11.8378C21.0101 12.1935 21.0885 12.5443 21.2382 12.8643C21.3879 13.1842 21.6049 13.4651 21.8733 13.6862C22.3535 14.0896 22.9524 14.3097 23.5701 14.3097C24.1877 14.3097 24.7867 14.0896 25.2668 13.6862C25.5349 13.4648 25.7517 13.1839 25.9013 12.864C26.051 12.5441 26.1296 12.1934 26.1315 11.8378V9.17593H28.1416C28.6935 9.17816 29.2221 9.40678 29.6124 9.81199C30.0026 10.2172 30.2228 10.7661 30.2249 11.3392V18.7522C29.9345 18.6352 29.6376 18.5365 29.3359 18.4564V15.4375H8.88908V28.0199C8.89335 28.4686 9.0676 28.8975 9.37411 29.2138C9.68061 29.5301 10.0947 29.7083 10.5269 29.71H20.4959C20.6467 30.0285 20.8166 30.3368 21.0046 30.6332L21.0005 30.6437ZM26.6646 23.3153H27.3441C27.4045 23.3153 27.4625 23.3402 27.5052 23.3846C27.5479 23.4289 27.5719 23.4891 27.5719 23.5519V26.2729H29.9727C30.0327 26.2729 30.0904 26.2975 30.1331 26.3414C30.1757 26.3853 30.2 26.445 30.2005 26.5073V27.2151C30.2 27.2774 30.1757 27.3371 30.1331 27.381C30.0904 27.4249 30.0327 27.4496 29.9727 27.4496H26.4387V23.5519C26.4387 23.4895 26.4624 23.4296 26.5047 23.3853C26.547 23.341 26.6045 23.3158 26.6646 23.3153ZM27.4356 21.7583C28.2864 21.7579 29.1181 22.0195 29.8257 22.5099C30.5332 23.0004 31.0848 23.6977 31.4106 24.5138C31.7365 25.3298 31.8219 26.2278 31.6562 27.0942C31.4905 27.9607 31.081 28.7566 30.4796 29.3814C29.8782 30.0062 29.1118 30.4318 28.2775 30.6042C27.4431 30.7767 26.5782 30.6884 25.7922 30.3505C25.0062 30.0125 24.3344 29.4401 23.8617 28.7056C23.389 27.9712 23.1367 27.1076 23.1367 26.2243C23.1365 25.6379 23.2474 25.0572 23.4634 24.5154C23.6793 23.9736 23.9959 23.4812 24.3951 23.0665C24.7943 22.6518 25.2683 22.3228 25.79 22.0983C26.3117 21.8739 26.8709 21.7583 27.4356 21.7583Z" fill="#0471FF"/>
</g>
<defs>
<clipPath id="clip0_386_51">
<rect width="25" height="25" fill="white" transform="translate(8 7)"/>
</clipPath>
</defs>
</svg>
