<svg width="46" height="46" viewBox="0 0 46 46" fill="none" xmlns="http://www.w3.org/2000/svg">
<path d="M3.05835 3.09646V13.7069C3.05835 13.9222 3.23289 14.0967 3.44815 14.0967H14.0586C14.2739 14.0967 14.4484 13.9221 14.4484 13.7069V3.09646C14.4484 2.88116 14.2738 2.70667 14.0586 2.70667H3.44815C3.23289 2.70663 3.05835 2.88116 3.05835 3.09646ZM4.56176 4.21008H12.9449V12.5932H4.56176V4.21008Z" fill="black"/>
<path d="M11.2561 5.71472H6.25006C6.1485 5.71472 6.06616 5.79706 6.06616 5.89862V10.9047C6.06616 11.0063 6.1485 11.0886 6.25006 11.0886H11.2561C11.3577 11.0886 11.4401 11.0063 11.4401 10.9047V5.89862C11.4401 5.79706 11.3577 5.71472 11.2561 5.71472Z" fill="black"/>
<path d="M3.05835 42.9035C3.05835 43.1188 3.23289 43.2933 3.44815 43.2933H14.0586C14.2739 43.2933 14.4484 43.1188 14.4484 42.9035V32.2931C14.4484 32.0778 14.2738 31.9033 14.0586 31.9033H3.44815C3.23285 31.9033 3.05835 32.0779 3.05835 32.2931V42.9035ZM4.56176 33.4067H12.9449V41.7899H4.56176V33.4067Z" fill="black"/>
<path d="M11.2561 34.9113H6.25006C6.1485 34.9113 6.06616 34.9937 6.06616 35.0952V40.1014C6.06616 40.2029 6.1485 40.2853 6.25006 40.2853H11.2561C11.3577 40.2853 11.4401 40.203 11.4401 40.1014V35.0952C11.4401 34.9937 11.3577 34.9113 11.2561 34.9113Z" fill="black"/>
<path d="M31.9417 14.0967H42.552C42.7673 14.0967 42.9419 13.9221 42.9419 13.7069V3.09646C42.9419 2.88116 42.7673 2.70667 42.552 2.70667H31.9417C31.7264 2.70667 31.5519 2.8812 31.5519 3.09646V13.7069C31.5518 13.9221 31.7264 14.0967 31.9417 14.0967ZM33.0553 4.21008H41.4385V12.5932H33.0553V4.21008Z" fill="black"/>
<path d="M39.7499 5.71472H34.7437C34.6422 5.71472 34.5598 5.79706 34.5598 5.89862V10.9047C34.5598 11.0063 34.6422 11.0886 34.7437 11.0886H39.7499C39.8515 11.0886 39.9338 11.0063 39.9338 10.9047V5.89862C39.9338 5.79706 39.8514 5.71472 39.7499 5.71472Z" fill="black"/>
<path d="M18.1387 9.68231V8.28712V6.89194H19.5099V5.497H20.8807V4.10182H19.5099V2.70663H18.1387H16.7679V4.10182H18.1387V5.497H16.7679H15.397V6.89194V8.28712V9.68231H16.7679H18.1387Z" fill="black"/>
<path d="M18.1387 16.658V15.2628V13.8676H16.7679V12.4724V11.0775H15.397V12.4724V13.8676V15.2628V16.658H16.7679H18.1387Z" fill="black"/>
<path d="M18.1387 40.4711V39.0759V39.0439H16.7679V37.6487V36.2537H18.1387H19.5099V36.2217V34.8265V33.4313H20.8807V33.3995V32.0043H19.5099V33.3995H18.1387V32.0043H16.7679V30.6091H15.397V32.0043V33.3995V33.4313V34.8265V36.2217V36.2537V37.6487V39.0439V39.0759V40.4711H16.7679H18.1387Z" fill="black"/>
<path d="M15.3969 29.2139H16.7678H18.1387H19.5098H20.8807V27.819H22.2516V26.4238H23.6225V27.819H24.9936H26.3645V29.2139V30.6091H27.7354V29.2139V27.819V26.4238H26.3645H24.9936V25.0286V23.6334H26.3645V22.2385V20.8433H24.9936H23.6225V22.2385V23.6334H22.2516V25.0286H20.8807H19.5098H18.1387H16.7678H15.3969V26.4238H14.0258H12.6549H11.2841H9.91318V25.0286V23.6334H8.54205V22.2385V20.8433H7.17117H5.80029V22.2385V23.6334V25.0286H7.17117H8.54205V26.4238V27.819H9.91318V29.2139H11.2841V27.819H12.6549H14.0258H15.3969V29.2139Z" fill="black"/>
<path d="M14.0257 15.2628H12.6548V16.658H14.0257V15.2628Z" fill="black"/>
<path d="M14.0257 18.0529H12.6548V19.4481H14.0257V18.0529Z" fill="black"/>
<path d="M12.6548 20.8433V22.2385H14.0257H15.3968V23.6334H16.7677V22.2385H18.1386H19.5097V20.8433H20.8806V22.2385H22.2514V20.8433V19.4481V18.0529H23.6223V16.658V15.2628H24.9934V13.8676V12.4724H23.6223V13.8676H22.2514V15.2628H20.8806V16.658V18.0529H19.5097H18.1386V19.4481H16.7677V20.8433H15.3968H14.0257H12.6548Z" fill="black"/>
<path d="M14.0257 29.2139H12.6548V30.6091H14.0257V29.2139Z" fill="black"/>
<path d="M11.2841 23.6334V25.0286H12.6549H14.0258V23.6334H12.6549V22.2385H11.2841V23.6334Z" fill="black"/>
<path d="M11.284 19.4481H9.91284V20.8433V22.2385H11.284V20.8433V19.4481Z" fill="black"/>
<path d="M9.91278 18.0529H11.2839H12.6548V16.658H11.2839V15.2628H9.91278H8.5419H7.17102V16.658V18.0529H8.5419H9.91278Z" fill="black"/>
<path d="M8.5419 27.819H7.17102V29.2139H8.5419V27.819Z" fill="black"/>
<path d="M7.17117 18.0529H5.80029V19.4481H7.17117V18.0529Z" fill="black"/>
<path d="M7.17117 26.4238H5.80029V27.819H7.17117V26.4238Z" fill="black"/>
<path d="M4.42923 16.658H3.05835V18.0529V19.4481V20.8433H4.42923V19.4481V18.0529H5.80036V16.658H4.42923Z" fill="black"/>
<path d="M3.05835 25.0286V26.4238V27.819V29.2139H4.42923V27.819V26.4238V25.0286V23.6334H3.05835V25.0286Z" fill="black"/>
<path d="M31.8481 32.0043V33.3995V33.4313H33.2193V33.3995H33.2506V32.0043H33.2193H31.8481Z" fill="black"/>
<path d="M38.7659 25.0286V26.4238H37.395V27.819H36.0239V26.4238V25.0286H35.9925H34.6214H33.2505H33.2192H31.8481V26.4238V27.819H30.4772H29.1063V29.2139V30.6091V32.0043V33.3995V33.4313V34.8265V36.2217H27.7352H26.3643V36.2537V37.6487V39.0439H24.9934V39.0759V40.4711H23.6223V41.8663V41.8981V43.2933H24.9934H26.3643V41.8981V41.8663V40.4711H27.7352V39.0759V39.0439V37.6487H29.1063H30.4772V36.2537H31.8481H33.2192V36.2217H33.2505V36.2537H33.2192V37.6487H31.8481V39.0439H30.4772V39.0759V40.4711H29.1063V41.8663V41.8981V43.2933H30.4772H31.8481V41.8981H33.2192V41.8663H33.2505V41.8981H34.6214V43.2933H35.9925H36.0239V41.8981H35.9925V41.8663H36.0239V40.4711H35.9925H34.6214H33.2505V39.0759H33.2192V39.0439H33.2505V39.0759H34.6214H35.9925V39.0439H36.0239V39.0759H37.395V39.0439V37.6487H38.7659H38.7975V36.2537H38.7659V36.2217H38.7975V34.8265H38.7659H37.395H36.0239V33.4313H35.9925V33.3995H36.0239V32.0043V30.6091V29.2139H37.395V30.6091H38.7659H38.7975V29.2139V27.819H40.1683V29.2139V30.6091H41.5392V32.0043H40.1683H38.7975H38.7659H37.395V33.3995V33.4313H38.7659V33.3995H38.7975V33.4313H40.1683V34.8265V36.2217V36.2537H41.5392V36.2217H41.5708V36.2537H41.5392V37.6487H40.1683V39.0439V39.0759H41.5392V39.0439H41.5708V39.0759H41.5392V40.4711H40.1683V41.8663H38.7975V41.8981H38.7659V43.2933H38.7975H40.1683V41.8981H41.5392V41.8663H41.5708V41.8981H42.9417V41.8663V40.4711V39.0759V39.0439V37.6487V36.2537V36.2217V34.8265H41.5708V33.4313H41.5392V33.3995H41.5708V32.0043H42.9417V30.6091H41.5708V29.2139H42.9417V27.819V26.4238V25.0286H41.5708V23.6334H41.5392H40.1683V25.0286H41.5392V26.4238H40.1683V25.0286H38.7975V23.6334H38.7659H37.395V25.0286H38.7659ZM33.2505 34.8265H33.2192H31.8481H30.4772V33.4313V33.3995V32.0043V30.6091H31.8481H33.2192H33.2505H34.6214V32.0043V33.3995V33.4313V34.8265H33.2505ZM36.0239 36.2217V36.2537H35.9925V37.6487H34.6214V36.2537H35.9925V36.2217H36.0239Z" fill="black"/>
<path d="M38.7975 19.4481H38.766H37.3951V20.8433H36.024H35.9926V22.2385H34.6215V20.8433H33.2506H33.2191H31.8482H30.4773H29.1064V22.2385V23.6334V25.0286H30.4773V23.6334H31.8482H33.2193H33.2506H34.6215H35.9926H36.024H37.3951V22.2385H38.766H38.7975V20.8433H40.1684V19.4481H38.7975Z" fill="black"/>
<path d="M41.5393 22.2385H41.5708H42.9417V20.8433V19.4481V18.0529H41.5708V16.658H41.5393H40.1684V15.2628H38.7975H38.7659H37.3951H36.0239H35.9926H34.6215H33.2506H33.2191H31.8481V16.658H30.4773V18.0529V19.4481H31.8481V18.0529H33.2191H33.2506V16.658H34.6215H35.9926V18.0529H36.0239H37.3951H38.7659H38.7975H40.1684H41.5393V19.4481V20.8433H40.1684V22.2385H41.5393Z" fill="black"/>
<path d="M30.4772 6.89198V5.49704H29.1064H27.7352V6.89198H29.1064H30.4772Z" fill="black"/>
<path d="M30.4773 12.4724H29.1064V13.8676H30.4773V12.4724Z" fill="black"/>
<path d="M27.7352 15.2628V16.658H29.1064V15.2628V13.8676H27.7352V15.2628Z" fill="black"/>
<path d="M27.7353 23.6334H26.3644V25.0286H27.7353V23.6334Z" fill="black"/>
<path d="M24.9935 12.4724H26.3644V13.8676H27.7353V12.4724H29.1064V11.0775H30.4773V9.68229V8.28711H29.1064H27.7353V9.68229H26.3644H24.9935V11.0775V12.4724Z" fill="black"/>
<path d="M24.9935 18.0529V19.4481H26.3644H27.7353V18.0529H26.3644V16.658V15.2628H24.9935V16.658V18.0529Z" fill="black"/>
<path d="M23.6224 33.4313V34.8265H22.2515H20.8806V36.2216V36.2537H22.2515H23.6224H24.9935V36.2216V34.8265H26.3644V33.4313V33.3995V32.0043H24.9935V30.6091H23.6224V29.2139H22.2515V30.6091V32.0043H23.6224V33.3995V33.4313Z" fill="black"/>
<path d="M23.6225 4.10182H24.9936V5.497V6.89194H26.3645V5.497V4.10182V2.70663H24.9936H23.6225H22.2516V4.10182V5.497H23.6225V4.10182Z" fill="black"/>
<path d="M23.6224 9.68231H24.9935V8.28712H23.6224V6.89194H22.2515V8.28712H20.8806V9.68231H22.2515V11.0775H23.6224V9.68231Z" fill="black"/>
<path d="M23.6224 39.0439V37.6487H22.2515H20.8806H19.5098V39.0439V39.0759H20.8806H22.2515V40.4711H23.6224V39.0759V39.0439Z" fill="black"/>
<path d="M22.2515 11.0775H20.8806V12.4724V13.8676H22.2515V12.4724V11.0775Z" fill="black"/>
<path d="M20.8807 43.2933V41.8981V41.8663V40.4711H19.5098V41.8663H18.1387V41.8981V43.2933H19.5098H20.8807Z" fill="black"/>
<path d="M19.5098 9.68231H18.1387V11.0775H19.5098V9.68231Z" fill="black"/>
<path d="M19.5098 12.4724H18.1387V13.8676H19.5098V12.4724Z" fill="black"/>
<path d="M0.501173 7.67238C0.777934 7.67238 1.00231 7.448 1.00231 7.17124V1.47951C1.00231 1.21646 1.21634 1.00243 1.47939 1.00243H7.17111C7.4479 1.00243 7.67225 0.778053 7.67225 0.501291C7.67225 0.224529 7.44787 0.000152588 7.17111 0.000152588H1.47939C0.663662 0.000152588 0 0.663815 0 1.47955V7.17127C3.53237e-05 7.448 0.224376 7.67238 0.501173 7.67238Z" fill="black"/>
<path d="M7.67221 45.4989C7.67221 45.2221 7.44784 44.9977 7.17108 44.9977H1.47936C1.2163 44.9977 1.00228 44.7837 1.00228 44.5207V38.8289C1.00228 38.5521 0.7779 38.3278 0.501138 38.3278C0.224342 38.3278 0 38.5521 0 38.8289V44.5207C0 45.3364 0.663663 46 1.47939 46H7.17111C7.44784 46 7.67221 45.7757 7.67221 45.4989Z" fill="black"/>
<path d="M45.4989 38.3278C45.2221 38.3278 44.9977 38.5521 44.9977 38.8289V44.5207C44.9977 44.7837 44.7837 44.9977 44.5206 44.9977H38.8289C38.5521 44.9977 38.3278 45.2221 38.3278 45.4989C38.3278 45.7756 38.5521 46 38.8289 46H44.5206C45.3364 46 46 45.3364 46 44.5207V38.8289C46 38.5521 45.7756 38.3278 45.4989 38.3278Z" fill="black"/>
<path d="M44.5206 0H38.8289C38.5521 0 38.3278 0.224377 38.3278 0.501139C38.3278 0.777901 38.5521 1.00228 38.8289 1.00228H44.5206C44.7837 1.00228 44.9977 1.2163 44.9977 1.47936V7.17109C44.9977 7.44785 45.2221 7.67222 45.4989 7.67222C45.7756 7.67222 46 7.44785 46 7.17109V1.47936C46 0.663664 45.3364 0 44.5206 0Z" fill="black"/>
</svg>
