<svg width="40" height="40" viewBox="0 0 40 40" fill="none" xmlns="http://www.w3.org/2000/svg">
<circle cx="20" cy="20" r="19.5" stroke="#0471FF"/>
<g clip-path="url(#clip0_387_57)">
<path d="M26.9687 27.3125C26.7615 27.3125 26.5628 27.3948 26.4163 27.5413C26.2698 27.6878 26.1875 27.8865 26.1875 28.0938V30.4375H10.5625V11.6875H13.6875V12.4688C13.6875 12.676 13.7698 12.8747 13.9163 13.0212C14.0628 13.1677 14.2615 13.25 14.4687 13.25H22.2812C22.4884 13.25 22.6872 13.1677 22.8337 13.0212C22.9802 12.8747 23.0625 12.676 23.0625 12.4688V11.6875H26.1875V12.4688C26.1875 12.676 26.2698 12.8747 26.4163 13.0212C26.5628 13.1677 26.7615 13.25 26.9687 13.25C27.1759 13.25 27.3747 13.1677 27.5212 13.0212C27.6677 12.8747 27.75 12.676 27.75 12.4688V10.9062C27.75 10.699 27.6677 10.5003 27.5212 10.3538C27.3747 10.2073 27.1759 10.125 26.9687 10.125H23.0625V9.34375C23.0625 8.72215 22.8156 8.12601 22.376 7.68647C21.9365 7.24693 21.3403 7 20.7187 7H16.0312C15.4096 7 14.8135 7.24693 14.374 7.68647C13.9344 8.12601 13.6875 8.72215 13.6875 9.34375V10.125H9.78125C9.57405 10.125 9.37533 10.2073 9.22882 10.3538C9.08231 10.5003 9 10.699 9 10.9062V31.2188C9 31.426 9.08231 31.6247 9.22882 31.7712C9.37533 31.9177 9.57405 32 9.78125 32H26.9687C27.1759 32 27.3747 31.9177 27.5212 31.7712C27.6677 31.6247 27.75 31.426 27.75 31.2188V28.0938C27.75 27.8865 27.6677 27.6878 27.5212 27.5413C27.3747 27.3948 27.1759 27.3125 26.9687 27.3125ZM15.25 9.34375C15.25 9.13655 15.3323 8.93784 15.4788 8.79132C15.6253 8.64481 15.824 8.5625 16.0312 8.5625H20.7187C20.9259 8.5625 21.1247 8.64481 21.2712 8.79132C21.4177 8.93784 21.5 9.13655 21.5 9.34375V11.6875H15.25V9.34375ZM33.7719 16.6031L30.6469 13.4781C30.5743 13.4054 30.4881 13.3476 30.3932 13.3083C30.2983 13.2689 30.1965 13.2486 30.0937 13.2486C29.991 13.2486 29.8892 13.2689 29.7943 13.3083C29.6994 13.3476 29.6132 13.4054 29.5406 13.4781L20.1656 22.8531C20.0931 22.9258 20.0357 23.0121 19.9965 23.107C19.9574 23.2019 19.9373 23.3036 19.9375 23.4062V26.5312C19.9375 26.7385 20.0198 26.9372 20.1663 27.0837C20.3128 27.2302 20.5115 27.3125 20.7187 27.3125H23.8437C23.9464 27.3127 24.0481 27.2926 24.143 27.2535C24.2379 27.2143 24.3242 27.1569 24.3969 27.0844L33.7719 17.7094C33.8446 17.6368 33.9023 17.5506 33.9417 17.4557C33.9811 17.3608 34.0014 17.259 34.0014 17.1562C34.0014 17.0535 33.9811 16.9517 33.9417 16.8568C33.9023 16.7619 33.8446 16.6757 33.7719 16.6031ZM21.5 25.75V23.7297L30.0937 15.1359L32.1141 17.1562L23.5203 25.75H21.5ZM18.375 26.5312C18.375 26.7385 18.2927 26.9372 18.1462 27.0837C17.9997 27.2302 17.8009 27.3125 17.5937 27.3125H14.4687C14.2615 27.3125 14.0628 27.2302 13.9163 27.0837C13.7698 26.9372 13.6875 26.7385 13.6875 26.5312C13.6875 26.324 13.7698 26.1253 13.9163 25.9788C14.0628 25.8323 14.2615 25.75 14.4687 25.75H17.5937C17.8009 25.75 17.9997 25.8323 18.1462 25.9788C18.2927 26.1253 18.375 26.324 18.375 26.5312ZM18.375 21.8438C18.375 22.051 18.2927 22.2497 18.1462 22.3962C17.9997 22.5427 17.8009 22.625 17.5937 22.625H14.4687C14.2615 22.625 14.0628 22.5427 13.9163 22.3962C13.7698 22.2497 13.6875 22.051 13.6875 21.8438C13.6875 21.6365 13.7698 21.4378 13.9163 21.2913C14.0628 21.1448 14.2615 21.0625 14.4687 21.0625H17.5937C17.8009 21.0625 17.9997 21.1448 18.1462 21.2913C18.2927 21.4378 18.375 21.6365 18.375 21.8438ZM22.2812 17.9375H14.4687C14.2615 17.9375 14.0628 17.8552 13.9163 17.7087C13.7698 17.5622 13.6875 17.3635 13.6875 17.1562C13.6875 16.949 13.7698 16.7503 13.9163 16.6038C14.0628 16.4573 14.2615 16.375 14.4687 16.375H22.2812C22.4884 16.375 22.6872 16.4573 22.8337 16.6038C22.9802 16.7503 23.0625 16.949 23.0625 17.1562C23.0625 17.3635 22.9802 17.5622 22.8337 17.7087C22.6872 17.8552 22.4884 17.9375 22.2812 17.9375Z" fill="#0471FF"/>
</g>
<defs>
<clipPath id="clip0_387_57">
<rect width="25" height="25" fill="white" transform="translate(9 7)"/>
</clipPath>
</defs>
</svg>
